<svg width="20" height="20" fill="none" xmlns="http://www.w3.org/2000/svg"><path d="M19.45 5.55l-1.802 1.802a.47.47 0 01-.664 0l-4.336-4.336a.47.47 0 010-.664L14.45.55a1.88 1.88 0 012.653 0l2.347 2.348a1.87 1.87 0 010 2.652zM11.101 3.9L.844 14.155l-.828 4.746a.939.939 0 001.086 1.086l4.746-.832L16.106 8.898a.47.47 0 000-.664L11.77 3.9a.474.474 0 00-.668 0zm-6.254 9.378a.545.545 0 010-.773l6.015-6.016a.545.545 0 01.774 0 .545.545 0 010 .774L5.62 13.277a.545.545 0 01-.773 0zm-1.41 3.286h1.875v1.418l-2.52.44-1.215-1.214.442-2.52h1.418v1.876z" fill="#000" fill-opacity=".541"/></svg>